<?xml version="1.0" encoding="UTF-8"?>
<svg viewBox="0 0 39 39" version="1.1" xmlns="http://www.w3.org/2000/svg" xmlns:xlink="http://www.w3.org/1999/xlink">
    <!-- Generator: Sketch 51.1 (57501) - http://www.bohemiancoding.com/sketch -->
    <title>Alert Fill</title>
    <desc>Created with Sketch.</desc>
    <defs></defs>
    <g id="CM" stroke="none" stroke-width="1" fill="none" fill-rule="evenodd">
        <g id="【CM-J-3】Meeting-" transform="translate(-1065.000000, -128.000000)">
            <g id="Icon/member" transform="translate(1065.000000, 128.000000)">
                <rect id="Rectangle-12-Copy" fill="#81ACD4" x="0" y="0" width="39" height="39" rx="19.5"></rect>
                <g id="user-silhouette" stroke-width="1" transform="translate(6.825000, 6.825000)" fill="#FFFFFF">
                    <path d="M12.675,14.625 C15.9056998,14.625 18.525,11.3386186 18.525,7.4313695 C18.525,2.01308631 15.9058273,0 12.675,0 C9.44404513,0 6.825,2.01308631 6.825,7.4313695 C6.82506377,11.3386186 9.44410889,14.625 12.675,14.625 Z" id="Shape" fill-rule="nonzero"></path>
                    <path d="M25.2502736,20.9916588 C24.5891336,19.2529756 23.7847541,18.0139293 22.837135,17.2745201 C21.8895159,16.5351108 20.1999975,15.664089 17.76858,14.6614546 C17.6597322,14.6039409 17.527933,14.6151222 17.43008,14.6904561 C16.0340254,15.7642784 14.3855818,16.7424593 12.6763839,16.7424593 C10.9669111,16.7424593 9.33260616,15.7642784 7.93655158,14.6904561 C7.83842371,14.6151222 7.7066245,14.6039409 7.59777677,14.6614546 C4.9017136,15.664089 3.16625612,16.5351108 2.39140433,17.2745201 C1.61655254,18.0139293 0.858226679,19.2529756 0.116426753,20.9916588 C-0.95391812,23.0566686 5.52256632,27.8124594 12.6833502,27.8069918 C19.5465824,27.8017514 26.2514305,23.2113767 25.2502736,20.9916588 Z" id="Shape" fill-rule="nonzero"></path>
                </g>
            </g>
        </g>
    </g>
</svg>
